<?xml version="1.0" standalone="no"?>
<!DOCTYPE svg PUBLIC "-//W3C//DTD SVG 20010904//EN"
 "http://www.w3.org/TR/2001/REC-SVG-20010904/DTD/svg10.dtd">
<svg version="1.0" xmlns="http://www.w3.org/2000/svg"
 width="512.000000pt" height="512.000000pt" viewBox="0 0 512.000000 512.000000"
 preserveAspectRatio="xMidYMid meet">
<metadata>
Created by potrace 1.14, written by Peter Selinger 2001-2017
</metadata>
<g transform="translate(0.000000,512.000000) scale(0.100000,-0.100000)"
fill="#000000" stroke="none">
<path d="M4547 5114 c-1 -1 -24 -5 -52 -9 -205 -27 -545 -127 -815 -241 -96
-41 -346 -168 -462 -236 -192 -111 -481 -309 -613 -419 -200 -168 -237 -201
-405 -369 -166 -167 -198 -201 -300 -325 -41 -49 -77 -92 -81 -95 -21 -20
-224 -301 -301 -420 -391 -599 -662 -1270 -817 -2024 -22 -105 -42 -211 -46
-236 -3 -25 -8 -52 -10 -60 -2 -8 -7 -35 -10 -60 -3 -25 -8 -56 -10 -70 -2
-14 -7 -49 -10 -79 -4 -30 -8 -61 -10 -70 -1 -9 -6 -51 -10 -93 -3 -43 -8 -92
-11 -110 -2 -18 -6 -70 -9 -116 l-6 -82 38 6 c663 98 1309 397 1772 819 126
114 300 302 394 425 244 318 435 703 492 988 16 81 24 142 19 142 -1 0 -43
-27 -92 -59 -154 -102 -311 -186 -477 -254 -120 -49 -296 -99 -400 -113 -22
-3 -63 -9 -91 -13 -48 -7 -301 -6 -354 2 -14 2 -49 7 -77 11 -66 10 -74 21
-25 34 74 20 604 210 677 242 11 5 49 21 85 36 36 14 89 37 118 50 29 13 55
24 57 24 3 0 67 30 143 67 615 300 1038 651 1329 1102 269 416 416 930 424
1481 2 134 2 130 -27 128 -14 -2 -26 -3 -27 -4z"/>
</g>
</svg>
